# xmcd CD database file
#
# Track frame offsets:
#	150
#	22650
#	42615
#	64137
#	85650
#	105005
#	114825
#	130725
#	146560
#	165675
#	185775
#	206425
#	222600
#	239850
#
# Disc length: 3492 seconds
#
# Revision: 0
# Processed by: cddbd v1.5PL3 Copyright (c) Steve Scherf et al.
# Submitted via: CDex 1.51
#
DISCID=c40da20e
DTITLE=Various Artist - Silence Vol. 3, CD 2
DYEAR=1900
DGENRE=New Age
TTITLE0=Tell Him
TTITLE1=African Sunset
TTITLE2=Un Break My Heart
TTITLE3=You Are Not Alone
TTITLE4=Diamonds
TTITLE5=What A Wonderful World
TTITLE6=Laterna Magica
TTITLE7=Nightflower
TTITLE8=Cherish
TTITLE9=Endless Horizon
TTITLE10=The Golden Temple
TTITLE11=Magic Winds
TTITLE12=The Ancient Light
TTITLE13=Anywhere For You
EXTD=
EXTT0=
EXTT1=
EXTT2=
EXTT3=
EXTT4=
EXTT5=
EXTT6=
EXTT7=
EXTT8=
EXTT9=
EXTT10=
EXTT11=
EXTT12=
EXTT13=
PLAYORDER=
